HIERARCHY
ROOT Hips
{
	OFFSET -3.958830 18.904000 13.208200
	CHANNELS 6 Xposition Yposition Zposition Zrotation Yrotation Xrotation 
	JOINT LHipJoint
	{
		OFFSET 0.000000 0.000000 0.000000
		CHANNELS 3 Zrotation Yrotation Xrotation
		JOINT LeftUpLeg
		{
			OFFSET 1.800000 -1.400000 0.085000
			CHANNELS 3 Zrotation Yrotation Xrotation
			JOINT LeftLeg
			{
				OFFSET 2.215000 -6.000000 0.000000
				CHANNELS 3 Zrotation Yrotation Xrotation
				JOINT LeftFoot
				{
					OFFSET 2.500000 -6.900000 0.000000
					CHANNELS 3 Zrotation Yrotation Xrotation
					JOINT LeftToeBase
					{
						OFFSET 0.200000 -0.500000 1.950000
						CHANNELS 3 Zrotation Yrotation Xrotation
						End Site
						{
							OFFSET 0.000000 0.000000 0.000000
						}
					}
				}
			}
		}
	}
	JOINT RHipJoint
	{
		OFFSET 0.000000 0.000000 0.000000
		CHANNELS 3 Zrotation Yrotation Xrotation
		JOINT RightUpLeg
		{
			OFFSET -1.800000 -1.400000 0.085000
			CHANNELS 3 Zrotation Yrotation Xrotation
			JOINT RightLeg
			{
				OFFSET -2.215000 -6.000000 0.000000
				CHANNELS 3 Zrotation Yrotation Xrotation
				JOINT RightFoot
				{
					OFFSET -2.500000 -6.900000 0.000000
					CHANNELS 3 Zrotation Yrotation Xrotation
					JOINT RightToeBase
					{
						OFFSET -0.200000 -0.500000 1.950000
						CHANNELS 3 Zrotation Yrotation Xrotation
						End Site
						{
							OFFSET 0.000000 0.000000 0.000000
						}
					}
				}
			}
		}
	}
	JOINT LowerBack
	{
		OFFSET 0.000000 0.000000 0.000000
		CHANNELS 3 Zrotation Yrotation Xrotation
		JOINT Spine
		{
			OFFSET -0.087000 1.940000 -0.288900
			CHANNELS 3 Zrotation Yrotation Xrotation
			JOINT Spine1
			{
				OFFSET 0.000000 1.950000 0.060000
				CHANNELS 3 Zrotation Yrotation Xrotation
				JOINT Neck
				{
					OFFSET 0.000000 0.000000 0.000000
					CHANNELS 3 Zrotation Yrotation Xrotation
					JOINT Neck1
					{
						OFFSET 0.000000 1.600000 0.340000
						CHANNELS 3 Zrotation Yrotation Xrotation
						JOINT Head
						{
							OFFSET 0.000000 1.667000 -0.240000
							CHANNELS 3 Zrotation Yrotation Xrotation
							End Site
							{
								OFFSET 0.000000 0.000000 0.000000
							}
						}
					}
				}
				JOINT LeftShoulder
				{
					OFFSET 0.000000 0.000000 0.000000
					CHANNELS 3 Zrotation Yrotation Xrotation
					JOINT LeftArm
					{
						OFFSET 2.700000 1.550000 -0.730000
						CHANNELS 3 Zrotation Yrotation Xrotation
						JOINT LeftForeArm
						{
							OFFSET 5.450000 0.000000 0.000000
							CHANNELS 3 Zrotation Yrotation Xrotation
							JOINT LeftHand
							{
								OFFSET 3.450000 0.000000 0.000000
								CHANNELS 3 Zrotation Yrotation Xrotation
								JOINT LeftHandIndex1
								{
									OFFSET 0.750000 0.000000 0.000000
									CHANNELS 3 Zrotation Yrotation Xrotation
									End Site
									{
										OFFSET 0.000000 0.000000 0.000000
									}
								}
							}
						}
					}
				}
				JOINT RightShoulder
				{
					OFFSET 0.000000 0.000000 0.000000
					CHANNELS 3 Zrotation Yrotation Xrotation
					JOINT RightArm
					{
						OFFSET -2.700000 1.550000 -0.730000
						CHANNELS 3 Zrotation Yrotation Xrotation
						JOINT RightForeArm
						{
							OFFSET -5.450000 0.000000 0.000000
							CHANNELS 3 Zrotation Yrotation Xrotation
							JOINT RightHand
							{
								OFFSET -3.450000 0.000000 0.000000
								CHANNELS 3 Zrotation Yrotation Xrotation
								JOINT RightHandIndex1
								{
									OFFSET -0.750000 0.000000 0.000000
									CHANNELS 3 Zrotation Yrotation Xrotation
									End Site
									{
										OFFSET 0.000000 0.000000 0.000000
									}
								}
							}
						}
					}
				}
			}
		}
	}
}
MOTION
Frames: 13
Frame Time: 0.016667
-0.961920 16.968020 -1.539820 -1.437442 41.362942 4.136380 -15.153823 13.614302 2.474476 15.453841 -1.280496 -9.625008 0.663759 4.043861 9.640954 -0.441176 3.724569 3.292564 0.410420 0.418990 0.093150 18.035721 -11.545314 2.857300 -12.939721 1.403345 -26.501993 7.169224 -8.594103 32.012138 -0.168620 -5.033237 2.425078 0.443710 0.257610 0.040860 -4.630407 -1.095487 -7.901546 10.572260 -2.761048 17.061544 -5.027236 -1.686681 17.335413 0.859618 2.997009 -10.572342 1.375793 -7.765700 38.738585 3.879030 -11.093730 -7.259810 -5.713418 -51.607253 0.459712 -8.364842 -51.670156 1.929349 23.809067 -28.842451 -6.702353 -3.932063 3.135279 -0.024110 0.141040 -0.146670 0.194200 3.919350 47.885089 3.865250 11.215463 42.950303 3.884727 -13.998903 24.658448 -3.426257 2.393357 -1.434635 -0.085360 0.289610 -0.040620 0.050880 
-1.038010 17.010590 -1.513440 -1.809789 39.806587 3.573613 -15.173301 13.835895 2.433610 15.419456 -1.303304 -11.039328 1.830774 4.071904 12.693659 -0.437851 3.671077 3.270751 0.427730 0.436020 0.119850 17.954272 -11.609535 2.963167 -11.425362 1.934516 -26.333668 6.445215 -7.859519 31.221263 -0.160966 -4.702253 2.552706 0.425850 0.205770 0.037190 -4.463746 -1.228894 -8.009311 9.582414 -2.237983 18.983324 -4.142392 -0.822126 16.829895 0.769589 2.496032 -11.351576 0.556829 -7.049959 40.238530 4.533530 -10.517900 -8.014510 -6.425127 -51.859566 0.483211 -8.081375 -49.368402 1.144744 20.337478 -28.397907 -5.521761 -3.846938 3.165293 0.018490 0.093600 -0.098360 0.190530 4.925920 49.305252 3.857600 11.325620 42.857500 3.138730 -13.605172 22.491287 -3.238866 2.508269 -1.404685 -0.065630 0.273410 -0.062320 0.042490 
-1.170760 17.058010 -1.449080 -1.730238 37.019949 3.300832 -15.234039 14.161859 2.433229 14.834031 -1.507480 -13.955542 3.820280 4.119820 18.854310 -0.448244 3.851562 3.132905 0.424400 0.414450 0.140300 17.812213 -11.643797 3.109675 -9.570707 2.703439 -25.909659 5.368743 -6.846298 30.102785 -0.127669 -4.271260 2.713269 0.397690 0.163460 0.037360 -4.082422 -1.540807 -8.179951 7.284370 -0.680793 21.230707 -3.118054 1.256677 16.136496 0.645717 1.965986 -12.943785 -0.600139 -6.150648 43.079226 5.699050 -10.094720 -8.748820 -6.300423 -51.598351 -0.228272 -9.978314 -47.374772 1.486562 16.920528 -23.699233 -4.132842 -3.773514 3.136800 0.086010 0.046760 -0.056850 0.165510 5.154561 50.716396 4.768498 11.731512 43.071923 4.078201 -9.983076 17.440789 -1.837715 2.724687 -1.274388 -0.067220 0.263450 -0.053170 0.021200 
-1.320170 17.132940 -1.362360 -0.645647 33.819904 3.631538 -15.343522 14.358824 2.645304 13.262805 -2.295031 -18.196270 5.842317 4.234398 27.294101 -0.353759 4.499674 2.831041 0.448010 0.434910 0.171020 17.665956 -11.516346 3.180077 -8.441998 3.212992 -25.845601 4.386370 -6.072727 29.578895 -0.128277 -3.951790 2.832643 0.385920 0.107740 0.025480 -3.554375 -2.017794 -8.381830 3.655343 1.148246 23.561480 -2.152341 3.605823 15.770985 0.298622 1.288035 -15.029040 -2.370038 -5.688498 46.115716 7.078440 -10.307320 -9.911740 -7.163608 -49.749824 -0.756554 -12.148075 -46.517041 2.554295 13.698803 -17.746610 -2.841921 -3.738766 3.066264 0.147430 -0.018490 0.000300 0.160360 7.002074 51.151731 7.723479 12.806617 44.315553 3.927216 -9.793688 14.413214 -1.596672 2.944399 -1.145899 -0.054330 0.263980 -0.071980 0.013200 
-1.476800 17.182690 -1.287610 -0.213512 29.294852 4.020219 -15.492778 14.170044 3.220688 13.579822 -3.612116 -23.912684 5.186119 5.901751 37.725246 -0.107319 6.117518 2.182405 0.458200 0.437410 0.207340 17.580707 -11.111781 3.144098 -7.068854 3.895829 -26.174172 3.522899 -5.468493 29.638674 -0.134174 -3.738942 2.916852 0.366960 0.053770 0.026670 -2.953791 -2.483132 -8.729636 -0.112130 3.226216 25.384214 -0.907839 6.033581 15.125215 0.345295 0.080897 -17.093809 -4.807721 -4.715899 48.177381 6.815040 -9.648850 -10.204090 -8.436760 -46.988500 0.024035 -13.159101 -45.565714 2.409709 13.260400 -16.550522 -2.644738 -3.706655 3.022076 0.187210 -0.055730 0.042370 0.143010 8.798803 51.976806 9.679151 14.344139 45.502755 3.060855 -9.862817 13.731514 -1.607595 3.177964 -1.063447 -0.040420 0.242730 -0.084930 -0.005850 
-1.608420 17.228900 -1.216650 0.635934 23.897950 4.272655 -15.604925 13.695634 3.821020 13.640550 -4.982067 -28.698658 3.962637 8.450316 48.138131 0.266260 8.112930 1.453723 0.470620 0.448820 0.242080 17.619760 -10.738257 2.908261 -6.614650 3.984776 -26.227206 2.499194 -4.879654 29.030901 -0.139888 -3.484547 3.003809 0.351480 -0.005580 0.017960 -2.588916 -2.554188 -8.799615 -3.715922 5.580945 26.004885 -0.103683 8.190069 15.059011 0.053481 -0.541228 -18.609869 -6.445589 -3.434747 50.339881 7.690150 -8.669480 -10.922320 -8.716374 -44.184240 0.016192 -13.454745 -44.267287 1.852623 13.148957 -17.926659 -2.647247 -3.664589 2.923759 0.250750 -0.108940 0.099030 0.123770 9.870891 50.699461 12.309639 15.199354 46.236476 2.849320 -6.973746 17.299195 -0.849394 3.005560 -0.936645 -0.033450 0.233760 -0.095870 -0.027460 
-1.738860 17.229090 -1.117410 0.928775 19.819352 4.415610 -15.714341 13.033531 4.566182 15.522590 -6.209715 -34.122636 1.908906 12.268569 58.121462 0.737365 10.326032 0.716447 0.479500 0.462460 0.273870 17.691105 -10.330952 2.647524 -5.658777 4.034194 -25.984677 1.832002 -4.590893 28.923144 -0.167576 -3.352767 3.052217 0.335860 -0.053600 0.012120 -2.345859 -2.483691 -8.993267 -6.749006 7.353380 26.135789 1.088795 9.403435 15.150173 -0.343335 -0.813590 -20.533863 -7.177486 -2.119037 52.347904 8.314070 -7.260480 -11.302810 -9.541598 -41.830679 0.321932 -14.477743 -42.286059 1.824163 11.568688 -16.590071 -2.170806 -3.671814 2.811090 0.304330 -0.148800 0.151720 0.107010 11.875702 48.819038 15.505044 17.730708 47.668355 2.729892 -5.430675 19.022552 -0.452816 2.794548 -0.872665 -0.025700 0.228090 -0.106450 -0.045910 
-1.836200 17.204360 -1.021660 1.422430 17.136017 4.127558 -15.770178 12.454521 5.157802 16.339734 -7.212915 -38.594498 1.310198 15.450988 66.970097 1.201465 12.172245 0.171042 0.486790 0.467090 0.299270 17.772037 -10.126398 2.383011 -5.365851 3.771149 -25.006981 1.571587 -4.573344 28.925443 -0.197485 -3.343908 3.055065 0.319790 -0.096920 0.007330 -2.282198 -2.193033 -9.094499 -8.413914 8.687231 26.499383 1.660549 10.271830 14.906613 -0.484636 -0.971573 -21.543079 -7.480586 -1.588430 54.175528 8.419060 -6.648520 -11.202780 -11.560016 -40.185512 0.869183 -15.402692 -39.341267 0.966528 10.426744 -17.007051 -1.946695 -3.634909 2.751535 0.341790 -0.182800 0.189470 0.095170 14.536231 47.039933 17.080951 20.715832 46.944882 3.308252 -2.472608 18.238253 0.089940 2.670370 -0.861018 -0.016120 0.215600 -0.117520 -0.060090 
-1.916270 17.187660 -0.913630 2.220697 15.435144 3.295656 -15.797067 12.004825 5.626301 15.892777 -8.377275 -42.461487 1.897548 17.698823 75.002856 1.605115 13.649683 -0.229244 0.502370 0.478500 0.347990 17.838444 -10.083484 2.091721 -5.381278 3.131169 -23.014016 1.163338 -4.544563 28.405037 -0.235105 -3.315156 3.060367 0.305200 -0.156820 0.010330 -2.287048 -1.830970 -9.096030 -10.002547 9.929932 27.643961 1.750900 11.063811 14.052423 -0.422240 -0.355261 -21.665878 -5.777401 -1.886400 56.139461 8.104710 -5.784890 -11.710470 -15.767667 -38.730383 2.019865 -16.303906 -34.410661 -1.361658 9.559122 -19.947435 -1.969634 -3.538429 2.731230 0.392470 -0.220980 0.243170 0.073740 18.734599 44.662685 17.362274 24.935512 43.393761 2.532675 -0.084422 17.994284 0.276820 2.530380 -0.937157 -0.003810 0.200140 -0.131740 -0.085470 
-1.979350 17.173510 -0.808900 2.470221 14.884250 1.798986 -15.795324 11.656350 6.035827 15.314764 -9.619142 -45.856628 2.518250 19.413520 81.512269 1.914613 14.772432 -0.524019 0.514220 0.485490 0.399530 17.904870 -10.052905 1.878196 -5.364000 2.744603 -21.082965 0.934855 -4.816916 29.541293 -0.316206 -3.516426 2.979025 0.287880 -0.228830 0.010370 -2.366833 -1.574937 -9.144128 -10.459374 10.456487 30.495708 1.536872 11.336155 11.392857 -0.330799 0.484710 -20.907418 -3.609186 -2.043002 57.788385 8.216390 -4.431330 -12.832620 -20.666997 -37.077437 3.329459 -16.135003 -28.785352 -2.943048 7.631481 -20.536032 -1.614336 -3.479110 2.708204 0.460530 -0.267820 0.303770 0.042960 23.344416 41.905373 16.131284 28.604786 37.140516 0.669657 2.663270 19.180517 0.502083 2.413941 -1.016393 0.002230 0.180560 -0.142190 -0.122070 
-2.054890 17.189960 -0.728880 3.099231 15.019044 0.328180 -15.791453 11.438526 6.332296 13.397992 -11.031199 -48.575408 2.741869 20.483172 85.467637 2.143529 15.450333 -0.676276 0.533990 0.507000 0.432550 17.943748 -10.034916 1.728964 -5.672844 2.504132 -19.568571 0.903297 -5.066273 30.704327 -0.395811 -3.716444 2.903035 0.275430 -0.281000 0.009700 -2.426066 -1.470552 -9.167476 -11.140126 11.178792 34.202525 1.406963 11.623551 8.512544 -0.310637 1.127694 -19.972784 -2.051790 -2.803685 58.864441 9.040550 -4.384500 -14.173430 -24.694149 -34.954162 3.948773 -15.355623 -23.424519 -4.533766 6.196004 -22.152216 -1.361249 -3.392292 2.727025 0.506410 -0.315510 0.357560 0.036980 27.255209 39.305843 15.213438 29.849933 31.733148 -0.804118 3.226451 18.089178 0.424678 2.419214 -1.041433 0.020300 0.171530 -0.163640 -0.131660 
-2.111420 17.175680 -0.667850 3.038390 15.359690 -0.486770 -15.817556 11.065012 6.731596 11.624353 -12.963054 -52.961388 2.793304 21.300519 88.820282 2.325377 16.063609 -0.798934 0.530950 0.496970 0.445010 17.999809 -9.853408 1.635640 -5.823785 2.654399 -19.212856 1.897879 -5.772501 32.660906 -0.459927 -4.086224 2.770135 0.266480 -0.300290 0.013320 -2.447838 -1.419065 -9.263623 -10.751478 11.118354 36.943988 1.127347 11.343284 5.794082 -0.186957 1.784901 -17.685535 -0.532210 -3.564010 57.032344 8.401030 -4.071070 -14.739940 -27.064465 -31.602871 4.440850 -15.674030 -18.239665 -5.533257 4.619739 -24.894417 -1.106319 -3.338390 2.795435 0.510580 -0.318300 0.360840 0.029360 28.956463 35.855489 13.160724 31.815128 25.840992 -2.173397 3.766100 18.510389 0.295963 2.388554 -1.112441 0.021710 0.153620 -0.168900 -0.145640 
-2.133560 17.102850 -0.570940 2.650544 16.135322 -0.713199 -15.839950 10.657052 7.120537 10.017100 -15.485725 -57.012640 1.432845 22.459683 90.594174 2.497593 16.622795 -0.878151 0.472130 0.427670 0.408030 18.061043 -9.683732 1.533687 -6.292804 2.584401 -18.711450 3.458402 -6.786842 33.961824 -0.484903 -4.485624 2.645042 0.236170 -0.251760 0.015300 -2.478292 -1.348654 -9.345893 -9.881693 10.177907 37.919244 0.548015 10.363636 3.190286 -0.090799 2.867746 -14.311021 1.534605 -4.289380 53.056913 7.959080 -3.824840 -14.001880 -28.111917 -26.822907 4.405619 -16.344360 -13.790010 -5.640507 1.522856 -27.204156 -0.433222 -3.364029 2.862416 0.470380 -0.270480 0.308860 0.021110 29.182967 30.455116 10.571784 34.526293 18.899852 -4.022500 5.397189 22.018537 0.309018 2.337903 -1.196737 0.000010 0.147050 -0.143370 -0.145180 
